<svg xmlns="http://www.w3.org/2000/svg" width="76" height="76" fill="none"><g fill="#303030" fill-rule="evenodd" clip-rule="evenodd"><path d="m43.404 26.578 1.416 1.037a.873.873 0 0 1 .257.27.837.837 0 0 1-.127 1.027l-8.367 9.003a.558.558 0 0 1-.724.083l-.324-.228a.565.565 0 0 0-.692 0l-4.52 4.022c3.207-.38 6.389-.954 9.525-1.72a44.576 44.576 0 0 0 14.182-6.379s1.276 2.842.357 3.89c-3.835 4.47-21.681 8.403-27.72 7.456l-4.071 3.601-.303-.322 3.24-3.57a1.96 1.96 0 0 1-.548-.32 9.859 9.859 0 0 1-.562-2.157 80.068 80.068 0 0 0 3.574-.237L41.89 26.723a1.112 1.112 0 0 1 1.513-.145Zm-16.3 16.711a.686.686 0 0 0 .229.938c.12.077.263.119.408.119a.752.752 0 0 0 .523-.204.695.695 0 0 0 .212-.502.676.676 0 0 0-.025-.183l-.007.007a.706.706 0 0 0-.266-.36.756.756 0 0 0-.437-.138.766.766 0 0 0-.637.323ZM36.666 13.975l1.72 2.252.833-.031-1.801-2.395c.48-.158.898-.462 1.194-.87.277-.425.41-.927.38-1.433a2.24 2.24 0 0 0-.844-1.78 3.265 3.265 0 0 0-2.181-.584l-2.737.01.236 7.164h.762l-.072-2.272 1.934-.061c.192.01.385.01.576 0Zm1.418-1.725a1.626 1.626 0 0 1-.42.61 2.478 2.478 0 0 1-1.615.521l-1.914.062-.123-3.583 1.955-.071a2.51 2.51 0 0 1 1.615.42 1.65 1.65 0 0 1 .608 1.31 1.62 1.62 0 0 1-.106.73Zm-6.768 3.72.155.645-4.96 1.157-1.647-6.98 4.816-1.116.144.634-4.116.952.587 2.477 3.622-.85.154.635-3.632.84.617 2.589 4.26-.982Zm-12.873-2.66-.69.306 2.985 6.52 4.363-1.975-.267-.594-3.674 1.658-2.717-5.916Zm-7.172 4.574.618-.46 3.92 5.22 3.232-2.405.39.522-3.838 2.855-4.322-5.732ZM9.553 27.67l2.398-3.183 2.058.43.483-.634-7.748-1.659-.443.604 3.808 6.909.473-.634-1.03-1.833Zm-2.398-4.268 4.116.922-2.058 2.753L7.155 23.4Zm-.864 6.817-.164.706 2.356.594c.25.621.293 1.306.124 1.954a3.197 3.197 0 0 1-.72 1.444c-.35.381-.794.667-1.287.829a2.927 2.927 0 0 1-1.574 0 2.907 2.907 0 0 1-1.41-.747 2.792 2.792 0 0 1-.792-1.3 3.177 3.177 0 0 1-.031-1.607 2.918 2.918 0 0 1 1.358-1.986l-.37-.563a2.998 2.998 0 0 0-1.03.952 4.358 4.358 0 0 0-.586 1.413 3.849 3.849 0 0 0 0 2.047c.167.616.506 1.174.978 1.606.479.451 1.073.763 1.718.901a3.775 3.775 0 0 0 1.945-.072 3.53 3.53 0 0 0 1.585-1.023 3.84 3.84 0 0 0 .885-1.78c.112-.477.143-.968.092-1.454a3.425 3.425 0 0 0-.4-1.31l-2.676-.604ZM43.83 14.323l-.37 2.446-.752-.113.38-2.405-2.13-5.117.803.122 1.822 4.36 3.087-3.612.72.153-3.56 4.166Zm11.072.727-.896-1.157 1.41-.164v-.501l-1.482.204.525-1.371-.442-.184-.556 1.35-.793-1.166-.4.307.905 1.157-1.461.163v.492l1.481-.195-.576 1.341.432.184.566-1.34.896 1.187.39-.307Zm2.54 7.092A2.825 2.825 0 0 1 57 20.904l.608-.266c.045.406.178.797.39 1.146.23.392.53.739.886 1.024.366.349.834.575 1.337.645a1.129 1.129 0 0 0 .968-.4.92.92 0 0 0 .236-.696 1.877 1.877 0 0 0-.247-.706 10.742 10.742 0 0 0-.627-.91 9.29 9.29 0 0 1-.741-1.127 2.038 2.038 0 0 1-.268-.962c0-.38.143-.745.402-1.023.224-.27.52-.473.854-.584.373-.107.769-.107 1.142 0 .48.157.925.407 1.307.737.317.262.597.565.833.9.219.312.383.658.484 1.024l-.587.308a3.594 3.594 0 0 0-.452-.963 3.704 3.704 0 0 0-.69-.706 2.29 2.29 0 0 0-1.327-.624 1.117 1.117 0 0 0-.968.42.88.88 0 0 0-.236.696c.024.258.108.506.247.726.144.236.35.543.627.911.276.349.524.718.741 1.105.172.293.267.624.278.963a1.5 1.5 0 0 1-.401 1.023 1.832 1.832 0 0 1-.865.583c-.372.112-.77.112-1.142 0a3.823 3.823 0 0 1-1.317-.736 4.66 4.66 0 0 1-1.03-1.27Zm8.901-.552 1.451 2.047-5.361 3.766.432.625 5.372-3.736 1.45 2.047.536-.379-3.345-4.749-.535.379Zm-.853 10.46a3.396 3.396 0 0 1 1.029-1.597 3.66 3.66 0 0 1 1.687-.85 3.745 3.745 0 0 1 1.935.072c.605.2 1.148.552 1.575 1.024a3.83 3.83 0 0 1 .874 1.78 3.88 3.88 0 0 1 0 1.976 3.499 3.499 0 0 1-1.029 1.597 3.825 3.825 0 0 1-3.674.798 3.449 3.449 0 0 1-1.574-1.023 3.84 3.84 0 0 1-.875-1.77 3.92 3.92 0 0 1 .052-2.007Zm1.348 3.255c.343.389.788.676 1.286.829a3.207 3.207 0 0 0 2.984-.655c.38-.348.66-.79.813-1.28a3.278 3.278 0 0 0-.669-3.009 2.935 2.935 0 0 0-1.327-.829 3.102 3.102 0 0 0-1.585 0c-.524.1-1.009.345-1.4.706a2.854 2.854 0 0 0-.812 1.29c-.14.52-.14 1.067 0 1.587.112.507.357.977.71 1.36Zm.535 7.604-2.665 1.024-.195.767 2.84-1.023c.002.505.178.995.498 1.387.32.393.765.665 1.262.773a2.234 2.234 0 0 0 1.955-.287 3.242 3.242 0 0 0 1.194-1.904l.7-2.59-6.957-1.852-.196.727 2.182.563-.504 1.852a6.534 6.534 0 0 1-.02.07l-.008.032c-.043.157-.085.31-.085.461Zm1.263 1.872a1.846 1.846 0 0 1-.48-.562 2.454 2.454 0 0 1-.031-1.688l.494-1.843 3.488.932-.494 1.842c-.11.569-.42 1.08-.874 1.443a1.857 1.857 0 0 1-2.103-.124Zm-7.623 5.743-.525-.399 3.088-4.043 5.742 4.33-2.984 3.92-.525-.4 2.52-3.305-2.057-1.546-2.254 2.958-.514-.389 2.305-2.958-2.13-1.607-2.666 3.44Zm-3.878 8.24 1.471-.082-.75 1.238.431.246.68-1.33.782 1.227.401-.255-.792-1.218h1.492v-.502l-1.472.082.7-1.29-.442-.235-.638 1.371-.782-1.228-.402.256.792 1.218-1.471.01v.492Zm-11.906-.901 1.245.686a3.186 3.186 0 0 1 2.058-1.617 3.27 3.27 0 0 1 1.266-.134c.37.029.725.156 1.029.369.274.206.476.492.576.819.124.404.102.838-.062 1.228a5.118 5.118 0 0 1-1.029 1.423c.34.181.654.404.937.665.194.2.338.441.422.706a1.355 1.355 0 0 1-.268 1.198 1.976 1.976 0 0 1-1.153.788 1.8 1.8 0 0 1-1.276 0 1.286 1.286 0 0 1-.74-.87 1.386 1.386 0 0 1 .072-1.024c.236-.465.545-.89.915-1.259l-2.48-1.371a4.844 4.844 0 0 0-.061 1.463h-.628a4.867 4.867 0 0 1 .206-1.78l-1.297-.717.268-.573Zm1.79 1.023 2.727 1.505a4.28 4.28 0 0 0 .875-1.177 1.293 1.293 0 0 0 0-.921 1.103 1.103 0 0 0-.72-.768 2.068 2.068 0 0 0-1.318 0 2.474 2.474 0 0 0-1.605 1.33l.041.031Zm3.87 4.094a.918.918 0 0 0 .082-.757 1.258 1.258 0 0 0-.33-.532 4.45 4.45 0 0 0-.854-.563c-.312.307-.585.65-.813 1.023a1.018 1.018 0 0 0-.082.758.858.858 0 0 0 .453.542c.262.099.55.099.813 0 .28-.074.524-.244.69-.48l.04.01Zm-18.06-4.39-.144 7.164.628.01 3.2-5.25 3.026 5.353h.628l.133-7.165h-.73l-.103 5.701-2.738-4.851h-.36l-2.922 4.77.113-5.733h-.73Zm-3.724-.328a3.472 3.472 0 0 1 .936 3.541 3.638 3.638 0 0 1-.977 1.669 3.462 3.462 0 0 1-1.657.9 4.014 4.014 0 0 1-1.996-.061 3.876 3.876 0 0 1-1.73-.932c-.463-.44-.794-1-.956-1.617a3.757 3.757 0 0 1 1.029-3.602 3.556 3.556 0 0 1 1.626-.922 3.984 3.984 0 0 1 1.986.062 3.886 3.886 0 0 1 1.739.962Zm-3.51-.358a2.752 2.752 0 0 0-1.327.737c-.379.375-.649.845-.782 1.36a2.902 2.902 0 0 0 0 1.567c.122.498.382.952.751 1.31.388.377.866.648 1.39.788a3.25 3.25 0 0 0 1.595 0 2.927 2.927 0 0 0 1.337-.737c.378-.377.647-.847.783-1.361a2.933 2.933 0 0 0 0-1.576 2.873 2.873 0 0 0-.762-1.31 3.092 3.092 0 0 0-1.4-.778 2.991 2.991 0 0 0-1.584 0Zm-7.511-1.945-.278-2.815-.73-.47.298 3.009a2.399 2.399 0 0 0-1.482.112 2.35 2.35 0 0 0-1.08 1.024 2.243 2.243 0 0 0-.227 1.944c.303.711.85 1.292 1.544 1.638l2.346 1.341 3.602-6.172-.67-.379-1.131 1.986-1.678-.962a4.802 4.802 0 0 0-.514-.256Zm-2.118.738c.198-.15.425-.258.667-.318v-.051c.594-.031 1.18.146 1.657.501l1.656.952-1.8 3.07-1.657-.951a2.524 2.524 0 0 1-1.184-1.218 1.833 1.833 0 0 1 .66-1.985Zm-4.251-8.353.463-.46 3.55 3.633-5.145 4.995-3.427-3.521.473-.46 2.913 2.978 1.76-1.77-2.553-2.642.494-.47 2.604 2.66 1.914-1.852-3.046-3.09ZM4.316 42.91l-.247 1.413-1.111-.962-.34.368 1.143.952-1.38.481.155.4 1.379-.492-.288 1.453.494.093.257-1.454 1.101 1.024.33-.369-1.143-.962 1.39-.47-.165-.451-1.369.502.278-1.454-.484-.072Z"/></g></svg>